<svg xmlns="http://www.w3.org/2000/svg" width="27.021" height="27.022" viewBox="0 0 27.021 27.022"><defs><style>.a{fill:#fff;}</style></defs><path class="a" d="M14.355,229.855v1.583h1.583v-1.583Zm3.167,0v1.583h1.583v-1.583Zm0,0v1.583h1.583v-1.583Zm-3.167,0v1.583h1.583v-1.583Zm0,0v1.583h1.583v-1.583Zm3.167,0v1.583h1.583v-1.583Zm0,0v1.583h1.583v-1.583Zm-3.167,0v1.583h1.583v-1.583Zm0,0v1.583h1.583v-1.583Zm3.167,0v1.583h1.583v-1.583Zm0,0v1.583h1.583v-1.583Zm-3.167,1.583h1.583v-1.583H14.355ZM0,225v17.522H23.855V225Zm12.772,9.605h3.167v1.583H12.772Zm-4.75,0h3.167v1.583H8.022Zm-4.75,0H6.439v1.583H3.272Zm17.416,4.75H3.272v-1.583H20.688Zm0-3.167H17.522v-1.583h3.167Zm0-3.167H12.772v-4.75h7.916Zm-1.583-3.167H17.522v1.583h1.583Zm-3.167,0H14.355v1.583h1.583Zm-1.583,0v1.583h1.583v-1.583Zm3.167,0v1.583h1.583v-1.583Zm0,0v1.583h1.583v-1.583Zm-3.167,0v1.583h1.583v-1.583Zm0,0v1.583h1.583v-1.583Zm3.167,0v1.583h1.583v-1.583Zm0,0v1.583h1.583v-1.583Zm-3.167,0v1.583h1.583v-1.583Zm0,0v1.583h1.583v-1.583Zm3.167,0v1.583h1.583v-1.583Zm-3.167,0v1.583h1.583v-1.583Zm3.167,0v1.583h1.583v-1.583Zm0,0" transform="translate(0 -215.5)"/><path class="a" d="M77.5,0h23.749V1.583H77.5Zm0,0" transform="translate(-74.228)"/><path class="a" d="M77.5,75h23.749v1.583H77.5Zm0,0" transform="translate(-74.228 -71.833)"/><path class="a" d="M77.5,150h23.749v11.189H99.666v-9.605H77.5Zm0,0" transform="translate(-74.228 -143.667)"/></svg>