<svg xmlns="http://www.w3.org/2000/svg" width="29.063" height="29.064" viewBox="0 0 29.063 29.064"><defs><style>.a{fill:#fff;}</style></defs><g transform="translate(0)"><path class="a" d="M75.848,332.1a2.081,2.081,0,0,1-2.007-1.536c-.008-.031-.008-.063-.015-.094l-5.717-3.089a1.017,1.017,0,0,0-.509-.135,1.07,1.07,0,0,0-.2.019.974.974,0,0,0-.259.084,1.018,1.018,0,0,0-.446.412,1.054,1.054,0,0,0-.139.519,1.032,1.032,0,0,0,.516.9l9.462,5.662a1.562,1.562,0,0,0,.827.238h7.313a1.563,1.563,0,0,0,.571-.109l1.906-.753v-5.591L85.3,327.52a1.556,1.556,0,0,0-.8-.221H82.507a3.629,3.629,0,0,0-.938.123l-5.991,1.6a1.049,1.049,0,0,0-.765.915v.17a.95.95,0,0,0,.03.192,1.038,1.038,0,0,0,1,.764c.063-.005.368-.068.605-.122l5.375-1.438.268,1L76.7,331.952A5.075,5.075,0,0,1,75.848,332.1Zm0,0" transform="translate(-62.24 -306.02)"/><path class="a" d="M400,320h3.114v8.3H400Zm0,0" transform="translate(-374.05 -299.24)"/><path class="a" d="M0,0H3.114V9.342H0ZM0,0" transform="translate(0 0)"/><path class="a" d="M65.771,8.167a4.68,4.68,0,0,0,2.381.776V6.435a3.774,3.774,0,0,1-1.061-.6l-.3-.247.654-.806.3.244a2.751,2.751,0,0,0,3.5-.052l.363-.311,3.062,3.062a1.041,1.041,0,1,0,1.469-1.475L72.472,2.588l.734-.734,1.26,1.259h4.283L76.7,1.064A3.608,3.608,0,0,0,74.129,0H67.6a1.558,1.558,0,0,0-.7.164L65.744.746a2.605,2.605,0,0,1-1.255.272L64,1V7.785h1.194Zm0,0" transform="translate(-59.848 0)"/><path class="a" d="M144,66.5v8.917h19.722V64H150.313l1.038,1.038h8.738v.519a2.076,2.076,0,0,0,2.076,2.076h.519v4.152h-.519a2.076,2.076,0,0,0-2.076,2.076v.519H147.633v-.519a2.076,2.076,0,0,0-2.076-2.076h-.519V67.633h.519a2.071,2.071,0,0,0,1.666-.843l-.885-.885A3.775,3.775,0,0,1,144,66.5Zm0,0" transform="translate(-134.658 -59.848)"/><path class="a" d="M180.138,98.839a2.076,2.076,0,0,1-1.467-.6l-.783-.784a3.1,3.1,0,0,1-1.888,1.1v2.162a3.123,3.123,0,0,1,2.552,2.552h10.466a3.123,3.123,0,0,1,2.552-2.552V98.552A3.123,3.123,0,0,1,189.018,96h-6.95a2.041,2.041,0,0,1-.17,1.863,2.594,2.594,0,1,1-.295.376A2.09,2.09,0,0,1,180.138,98.839Zm0,0" transform="translate(-164.582 -89.772)"/><path class="a" d="M275.114,129.557A1.557,1.557,0,1,1,273.557,128,1.557,1.557,0,0,1,275.114,129.557Zm0,0" transform="translate(-254.354 -119.696)"/></g></svg>